<?xml version="1.0" standalone="no"?>
<!DOCTYPE svg PUBLIC "-//W3C//DTD SVG 20010904//EN"
 "http://www.w3.org/TR/2001/REC-SVG-20010904/DTD/svg10.dtd">
<svg version="1.0" xmlns="http://www.w3.org/2000/svg"
 width="1024.000000pt" height="1024.000000pt" viewBox="0 0 1024.000000 1024.000000"
 preserveAspectRatio="xMidYMid meet">

<g transform="translate(0.000000,1024.000000) scale(0.100000,-0.100000)"
fill="#000000" stroke="none">
<path d="M1133 9496 c-144 -35 -284 -149 -348 -283 -59 -124 -55 189 -55
-4093 0 -3498 2 -3932 15 -3985 53 -200 199 -344 405 -396 79 -20 7874 -21
7961 -1 31 7 105 37 165 67 88 42 123 67 176 120 111 110 175 260 198 460 14
124 14 7286 0 7410 -23 201 -81 333 -213 485 -88 101 -169 163 -264 202 l-58
23 -3965 2 c-3147 1 -3976 -1 -4017 -11z m4177 -2054 l0 -59 -122 -6 c-213
-10 -338 -56 -429 -155 -88 -96 -114 -163 -239 -628 l-78 -291 307 -1086 c168
-598 309 -1087 312 -1087 12 0 608 1790 764 2294 164 531 199 673 193 771 -3
55 -8 69 -33 96 -61 64 -148 89 -305 89 l-100 0 0 60 0 60 610 0 610 0 0 -60
0 -60 -122 0 c-299 -1 -389 -41 -464 -207 -51 -114 -154 -425 -689 -2089 -306
-951 -597 -1854 -646 -2007 l-90 -277 -57 0 -57 0 -314 1103 c-173 606 -317
1105 -320 1109 -3 4 -91 -293 -194 -660 -104 -367 -245 -866 -314 -1110 l-126
-443 -85 3 -84 3 -703 2285 -702 2285 -172 3 -171 2 0 60 0 60 1910 0 1910 0
0 -58z m3320 -2 l0 -60 -215 0 -215 0 -3 -1982 -3 -1983 -22 -110 c-34 -174
-59 -252 -117 -370 -89 -182 -199 -296 -360 -375 -109 -54 -179 -71 -320 -77
-149 -6 -238 11 -353 68 -189 93 -292 262 -292 479 0 235 120 400 289 400 133
0 214 -98 228 -275 12 -151 -34 -220 -203 -308 l-86 -44 68 -62 c37 -34 97
-76 133 -94 150 -74 310 -22 377 123 34 73 45 138 45 250 0 115 -7 144 -85
362 -25 70 -55 172 -66 227 -20 97 -20 132 -20 1935 l0 1836 -230 0 -230 0 0
60 0 60 840 0 840 0 0 -60z"/>
<path d="M2602 7368 c3 -7 227 -753 498 -1658 271 -905 496 -1648 500 -1653
11 -12 353 1153 347 1182 -4 20 -592 1932 -648 2109 l-11 32 -345 0 c-272 0
-344 -3 -341 -12z"/>
<path d="M4130 7368 c0 -28 247 -881 253 -872 8 13 139 473 171 601 14 56 26
117 26 135 0 49 -31 92 -86 119 -44 21 -65 24 -206 27 -127 3 -158 1 -158 -10z"/>
</g>
</svg>
